<?xml version="1.0" encoding="UTF-8"?>
<svg id="uuid-42f410a7-0971-4b98-9fca-c1e7a99ff209" data-name="Capa 2" xmlns="http://www.w3.org/2000/svg" viewBox="0 0 21.51 25.31">
  <g id="uuid-f4edd388-bf2e-4e4f-a088-20adcf0d997c" data-name="Capa 1">
    <g>
      <path d="M15.85,3.59c.99,0,1.79-.8,1.79-1.79s-.8-1.79-1.79-1.79-1.79.8-1.79,1.79.8,1.79,1.79,1.79" style="fill: #eee;"/>
      <path d="M15.2,14.16c-.07-.05-.13-.09-.2-.13h0,0s-.05-.03-.07-.04l-1.03-.58-4.23-2.44h0s-.02,0-.02,0l-6.62,11.47-.31.52c-.04.06-.08.12-.11.19h0s0,0,0,0c0,.02-.02.04-.03.06h0s0,0,0,0c-.08.19-.13.4-.13.62,0,.81.61,1.48,1.37,1.48.45,0,.85-.23,1.1-.59l.38-.66,1.76-3.04,7.22-1.93c.09-.02.17-.04.25-.07l.08-.02h0c.99-.37,1.71-1.39,1.71-2.58,0-.53-.14-1.02-.38-1.44-.19-.33-.44-.61-.73-.82M11.33,16.99l-2.3.62,1.65-2.86.84.49,2.01,1.16-2.2.59Z" style="fill: #eee;"/>
      <path d="M3.18,12.96l.22.62.62-.11.17-.03,3.03-.51-1.3-.76,2.48-4.3,3.51-.74h0c.57-.15.99-.7.99-1.36,0-.77-.58-1.39-1.29-1.39-.11,0-.22.02-.32.04l-4.66.99h0s-3.1,5.36-3.1,5.36l-1.43-.84,1.02,2.87.06.16Z" style="fill: #eee;"/>
      <polygon points="1.95 10.01 0 13.33 2.95 12.83 1.95 10.01" style="fill: #eee;"/>
      <polygon points="5.26 16.46 7.23 13.1 4.24 13.61 5.26 16.46" style="fill: #eee;"/>
      <polygon points="4.08 13.64 3.46 13.74 3.29 13.77 3.23 13.61 3.01 12.99 0 13.5 5.09 16.48 4.08 13.64" style="fill: #eee;"/>
      <path d="M20.2,4.08c-.49,0-.92.27-1.14.67-.04.07-.07.14-.1.21h0s-.13.29-.13.29l-.96,2.14s0,0,0,0h-2.82s0,0,0,0l-1.41,2.54s0,0,0,0h5.96s0,0,0,0v-.02s0,0,0,0c0,0,0,0,0,0l1.5-3.37.34-.77s0,0,0,0c.04-.12.06-.25.06-.38,0-.72-.59-1.31-1.31-1.31" style="fill: #eee;"/>
    </g>
  </g>
</svg>