<?xml version="1.0" encoding="UTF-8"?>
<svg id="uuid-50376787-a56b-4df7-99a8-7fb704a1b680" data-name="Capa 2" xmlns="http://www.w3.org/2000/svg" viewBox="0 0 18.44 25.7">
  <g id="uuid-1bc500f4-2ab5-4d60-b9ce-7bd60f16a4ab" data-name="Capa 1">
    <path d="M.77,19.22l1.5,2.66c.94-.5,1.89-.73,2.83-.73,1.34,0,2.66.44,3.79,1.46l2.08-2.32c-1.57-1.46-3.57-2.25-5.87-2.25-1.48,0-2.98.37-4.33,1.17M14.11,5.79c1.6,0,2.9-1.3,2.9-2.9s-1.3-2.9-2.9-2.9-2.9,1.3-2.9,2.9,1.3,2.9,2.9,2.9M16.23,14.44l2.21-2.45c-3.75-3.85-8.71-5.6-13.58-5.6-1.64,0-3.28.21-4.85.59l.81,3.23c1.35-.33,2.72-.5,4.08-.5,4.18,0,8.26,1.57,11.33,4.73M15.13,25.7h3.31c-.11-7.78-5.43-13.4-13.61-13.58v3.31c6.27.21,10.13,4.19,10.3,10.27h0Z" style="fill: #eee;"/>
  </g>
</svg>